The Big Bang Theory - S05E04 - The Wiggly Finger Catalyst - 720p HDTV x264 {$H@uN}.mkv

General:

Complete name                  : The Big Bang Theory - S05E04 - The Wiggly Finger Catalyst - 720p HDTV x264 {$H@uN}.mkv
Original Air Date              : September 22 2011
Genre                          : Sitcom
Language                       : English
Encoder                        : $H@uN
File format                    : Matroska
File size                      : 192 MiB
Duration                       : 20mn 9s
Overall bit rate               : 1 333 Kbps


Video:

Format                         : AVC
Duration                       : 20mn 9s
Bit rate                       : 1 200 Kbps
Width                          : 1 280 pixels
Height                         : 720 pixels
Display aspect ratio           : 16:9
Frame rate mode                : Variable
Frame rate                     : 23.976 fps
Color space                    : YUV
Chroma subsampling             : 4:2:0
Bit depth                      : 8 bits
Scan type                      : Progressive
Bits/(Pixel*Frame)             : 0.054
Stream size                    : 170 MiB (88%)
Writing library                : x264 core 112
Laguage                        : English
Subtitles                      : Seperate .srt file included


Audio:

Format                         : AC-3
Mode extension                 : CM (complete main)
Codec ID                       : A_AC3
Duration                       : 20mn 9s
Bit rate mode                  : Constant
Bit rate                       : 128 Kbps
Channel(s)                     : 2 channels
Channel positions              : Front: L R
Sampling rate                  : 48.0 KHz
Bit depth                      : 16 bits
Compression mode               : Lossy
Stream size                    : 18.5 MiB (10%)
Language                       : English

Screen Shots:
 
http://i1140.photobucket.com/albums/n566/ShaunGP/ScreenShots/TheBigBangTheory-S05E04-TheWigglyFingerCatalyst-720pHDTVx264HuNmkv_snapshot_0009_20111008_001752.jpg
 
http://i1140.photobucket.com/albums/n566/ShaunGP/ScreenShots/TheBigBangTheory-S05E04-TheWigglyFingerCatalyst-720pHDTVx264HuNmkv_snapshot_0243_20111008_002054.jpg
 
http://i1140.photobucket.com/albums/n566/ShaunGP/ScreenShots/TheBigBangTheory-S05E04-TheWigglyFingerCatalyst-720pHDTVx264HuNmkv_snapshot_1351_20111008_001839.jpg


Encoder's Notes:

Do Provide Feedback.
Keep in Mind, you are charged nothing for Downloading a TORRENT,
so its your duty to SEED n keep the torrent alive for as long as possible.
Njoy.!!! N Keep Seeding.